%TF.GenerationSoftware,KiCad,Pcbnew,(5.1.10)-1*%
%TF.CreationDate,2021-05-31T17:59:25+02:00*%
%TF.ProjectId,pimoco,70696d6f-636f-42e6-9b69-6361645f7063,rev?*%
%TF.SameCoordinates,Original*%
%TF.FileFunction,Soldermask,Top*%
%TF.FilePolarity,Negative*%
%FSLAX46Y46*%
G04 Gerber Fmt 4.6, Leading zero omitted, Abs format (unit mm)*
G04 Created by KiCad (PCBNEW (5.1.10)-1) date 2021-05-31 17:59:25*
%MOMM*%
%LPD*%
G01*
G04 APERTURE LIST*
%ADD10O,1.200000X2.000000*%
%ADD11R,1.200000X2.000000*%
%ADD12C,1.500000*%
%ADD13R,1.600000X1.600000*%
%ADD14C,1.600000*%
%ADD15R,3.500000X3.500000*%
%ADD16O,1.700000X1.700000*%
%ADD17R,1.700000X1.700000*%
%ADD18R,2.400000X2.400000*%
%ADD19C,2.400000*%
%ADD20R,3.200000X3.200000*%
%ADD21O,3.200000X3.200000*%
%ADD22C,3.000000*%
%ADD23C,2.700000*%
%ADD24R,1.275000X1.800000*%
%ADD25O,1.275000X1.800000*%
%ADD26C,4.000000*%
%ADD27R,1.500000X1.500000*%
%ADD28C,2.200000*%
%ADD29C,3.250000*%
G04 APERTURE END LIST*
D10*
%TO.C,U1*%
X161925000Y-113665000D03*
X161925000Y-78105000D03*
X159385000Y-113665000D03*
X159385000Y-78105000D03*
X156845000Y-113665000D03*
X156845000Y-78105000D03*
X154305000Y-113665000D03*
X154305000Y-78105000D03*
X151765000Y-113665000D03*
X151765000Y-78105000D03*
X149225000Y-113665000D03*
X149225000Y-78105000D03*
X146685000Y-113665000D03*
X146685000Y-78105000D03*
X144145000Y-113665000D03*
X144145000Y-78105000D03*
X141605000Y-113665000D03*
X141605000Y-78105000D03*
X139065000Y-113665000D03*
X139065000Y-78105000D03*
D11*
X136525000Y-113665000D03*
D10*
X136525000Y-78105000D03*
%TD*%
%TO.C,U3*%
X93345000Y-113665000D03*
X93345000Y-78105000D03*
X90805000Y-113665000D03*
X90805000Y-78105000D03*
X88265000Y-113665000D03*
X88265000Y-78105000D03*
X85725000Y-113665000D03*
X85725000Y-78105000D03*
X83185000Y-113665000D03*
X83185000Y-78105000D03*
X80645000Y-113665000D03*
X80645000Y-78105000D03*
X78105000Y-113665000D03*
X78105000Y-78105000D03*
X75565000Y-113665000D03*
X75565000Y-78105000D03*
X73025000Y-113665000D03*
X73025000Y-78105000D03*
X70485000Y-113665000D03*
X70485000Y-78105000D03*
D11*
X67945000Y-113665000D03*
D10*
X67945000Y-78105000D03*
%TD*%
%TO.C,U2*%
X127635000Y-113665000D03*
X127635000Y-78105000D03*
X125095000Y-113665000D03*
X125095000Y-78105000D03*
X122555000Y-113665000D03*
X122555000Y-78105000D03*
X120015000Y-113665000D03*
X120015000Y-78105000D03*
X117475000Y-113665000D03*
X117475000Y-78105000D03*
X114935000Y-113665000D03*
X114935000Y-78105000D03*
X112395000Y-113665000D03*
X112395000Y-78105000D03*
X109855000Y-113665000D03*
X109855000Y-78105000D03*
X107315000Y-113665000D03*
X107315000Y-78105000D03*
X104775000Y-113665000D03*
X104775000Y-78105000D03*
D11*
X102235000Y-113665000D03*
D10*
X102235000Y-78105000D03*
%TD*%
%TO.C,U0*%
X196215000Y-113665000D03*
X196215000Y-78105000D03*
X193675000Y-113665000D03*
X193675000Y-78105000D03*
X191135000Y-113665000D03*
X191135000Y-78105000D03*
X188595000Y-113665000D03*
X188595000Y-78105000D03*
X186055000Y-113665000D03*
X186055000Y-78105000D03*
X183515000Y-113665000D03*
X183515000Y-78105000D03*
X180975000Y-113665000D03*
X180975000Y-78105000D03*
X178435000Y-113665000D03*
X178435000Y-78105000D03*
X175895000Y-113665000D03*
X175895000Y-78105000D03*
X173355000Y-113665000D03*
X173355000Y-78105000D03*
D11*
X170815000Y-113665000D03*
D10*
X170815000Y-78105000D03*
%TD*%
D12*
%TO.C,HS1*%
X216916000Y-117348000D03*
%TD*%
D13*
%TO.C,X1*%
X187325000Y-135890000D03*
D14*
X179705000Y-135890000D03*
X179705000Y-120650000D03*
X187325000Y-120650000D03*
%TD*%
D15*
%TO.C,J5*%
X227584000Y-74422000D03*
G36*
G01*
X226584000Y-66922000D02*
X228584000Y-66922000D01*
G75*
G02*
X229334000Y-67672000I0J-750000D01*
G01*
X229334000Y-69172000D01*
G75*
G02*
X228584000Y-69922000I-750000J0D01*
G01*
X226584000Y-69922000D01*
G75*
G02*
X225834000Y-69172000I0J750000D01*
G01*
X225834000Y-67672000D01*
G75*
G02*
X226584000Y-66922000I750000J0D01*
G01*
G37*
G36*
G01*
X222009000Y-69672000D02*
X223759000Y-69672000D01*
G75*
G02*
X224634000Y-70547000I0J-875000D01*
G01*
X224634000Y-72297000D01*
G75*
G02*
X223759000Y-73172000I-875000J0D01*
G01*
X222009000Y-73172000D01*
G75*
G02*
X221134000Y-72297000I0J875000D01*
G01*
X221134000Y-70547000D01*
G75*
G02*
X222009000Y-69672000I875000J0D01*
G01*
G37*
%TD*%
D16*
%TO.C,J6*%
X66675000Y-107315000D03*
X66675000Y-104775000D03*
X69215000Y-107315000D03*
X69215000Y-104775000D03*
X71755000Y-107315000D03*
X71755000Y-104775000D03*
X74295000Y-107315000D03*
X74295000Y-104775000D03*
X76835000Y-107315000D03*
X76835000Y-104775000D03*
X79375000Y-107315000D03*
X79375000Y-104775000D03*
X81915000Y-107315000D03*
X81915000Y-104775000D03*
X84455000Y-107315000D03*
X84455000Y-104775000D03*
X86995000Y-107315000D03*
X86995000Y-104775000D03*
X89535000Y-107315000D03*
X89535000Y-104775000D03*
X92075000Y-107315000D03*
X92075000Y-104775000D03*
X94615000Y-107315000D03*
X94615000Y-104775000D03*
X97155000Y-107315000D03*
X97155000Y-104775000D03*
X99695000Y-107315000D03*
X99695000Y-104775000D03*
X102235000Y-107315000D03*
X102235000Y-104775000D03*
X104775000Y-107315000D03*
X104775000Y-104775000D03*
X107315000Y-107315000D03*
X107315000Y-104775000D03*
X109855000Y-107315000D03*
X109855000Y-104775000D03*
X112395000Y-107315000D03*
X112395000Y-104775000D03*
X114935000Y-107315000D03*
D17*
X114935000Y-104775000D03*
%TD*%
D18*
%TO.C,C2*%
X207645000Y-136144000D03*
D19*
X207645000Y-131144000D03*
%TD*%
D13*
%TO.C,C1*%
X215265000Y-102235000D03*
D14*
X218765000Y-102235000D03*
%TD*%
D20*
%TO.C,D2*%
X228600000Y-114300000D03*
D21*
X228600000Y-99060000D03*
%TD*%
D22*
%TO.C,F1*%
X205105000Y-90170000D03*
X227605000Y-90170000D03*
D23*
X216355000Y-90170000D03*
%TD*%
D19*
%TO.C,L1*%
X224790000Y-129794000D03*
X224790000Y-136794000D03*
%TD*%
D24*
%TO.C,U6*%
X220345000Y-113030000D03*
D25*
X218645000Y-113030000D03*
X216945000Y-113030000D03*
X215245000Y-113030000D03*
X213545000Y-113030000D03*
%TD*%
D13*
%TO.C,J0*%
X178435000Y-71755000D03*
D14*
X181205000Y-71755000D03*
X183975000Y-71755000D03*
X186745000Y-71755000D03*
X189515000Y-71755000D03*
X179820000Y-68915000D03*
X182590000Y-68915000D03*
X185360000Y-68915000D03*
X188130000Y-68915000D03*
D26*
X196475000Y-70335000D03*
X171475000Y-70335000D03*
%TD*%
%TO.C,J1*%
X137185000Y-70335000D03*
X162185000Y-70335000D03*
D14*
X153840000Y-68915000D03*
X151070000Y-68915000D03*
X148300000Y-68915000D03*
X145530000Y-68915000D03*
X155225000Y-71755000D03*
X152455000Y-71755000D03*
X149685000Y-71755000D03*
X146915000Y-71755000D03*
D13*
X144145000Y-71755000D03*
%TD*%
D26*
%TO.C,J2*%
X102895000Y-70335000D03*
X127895000Y-70335000D03*
D14*
X119550000Y-68915000D03*
X116780000Y-68915000D03*
X114010000Y-68915000D03*
X111240000Y-68915000D03*
X120935000Y-71755000D03*
X118165000Y-71755000D03*
X115395000Y-71755000D03*
X112625000Y-71755000D03*
D13*
X109855000Y-71755000D03*
%TD*%
%TO.C,J3*%
X75565000Y-71755000D03*
D14*
X78335000Y-71755000D03*
X81105000Y-71755000D03*
X83875000Y-71755000D03*
X86645000Y-71755000D03*
X76950000Y-68915000D03*
X79720000Y-68915000D03*
X82490000Y-68915000D03*
X85260000Y-68915000D03*
D26*
X93605000Y-70335000D03*
X68605000Y-70335000D03*
%TD*%
D17*
%TO.C,U5*%
X104775000Y-125730000D03*
D16*
X104775000Y-128270000D03*
X104775000Y-130810000D03*
X104775000Y-133350000D03*
%TD*%
D17*
%TO.C,U4*%
X69215000Y-123825000D03*
D16*
X69215000Y-126365000D03*
X69215000Y-128905000D03*
X69215000Y-131445000D03*
X69215000Y-133985000D03*
X69215000Y-136525000D03*
%TD*%
D20*
%TO.C,D1*%
X205105000Y-99060000D03*
D21*
X205105000Y-114300000D03*
%TD*%
D27*
%TO.C,J4*%
X216535000Y-80645000D03*
D12*
X213995000Y-80645000D03*
X211455000Y-80645000D03*
X208915000Y-80645000D03*
X206375000Y-80645000D03*
X215265000Y-78105000D03*
X212725000Y-78105000D03*
X210185000Y-78105000D03*
X207645000Y-78105000D03*
D28*
X218565000Y-74805000D03*
D29*
X216535000Y-71755000D03*
X205105000Y-71755000D03*
D28*
X203075000Y-74805000D03*
D12*
X205105000Y-78105000D03*
%TD*%
M02*
