M48
; DRILL file {KiCad (5.1.10)-1} date 05/31/21 17:59:28
; FORMAT={-:-/ absolute / inch / decimal}
; #@! TF.CreationDate,2021-05-31T17:59:28+02:00
; #@! TF.GenerationSoftware,Kicad,Pcbnew,(5.1.10)-1
; #@! TF.FileFunction,Plated,1,2,PTH
FMAT,2
INCH
T1C0.0157
T2C0.0315
T3C0.0354
T4C0.0394
T5C0.0433
T6C0.0472
T7C0.0512
T8C0.0630
T9C0.1260
%
G90
G05
T1
X2.725Y-3.975
X2.975Y-4.675
X3.075Y-4.725
X3.175Y-4.775
X3.375Y-4.825
X3.575Y-4.625
X4.125Y-4.625
X4.325Y-4.675
X4.425Y-4.725
X4.525Y-4.775
X4.725Y-4.825
X4.925Y-4.625
X5.475Y-4.625
X5.675Y-4.675
X5.775Y-4.725
X5.875Y-4.775
X6.075Y-4.825
T2
X2.675Y-3.075
X2.675Y-4.475
X2.775Y-3.075
X2.775Y-4.475
X2.875Y-3.075
X2.875Y-4.475
X2.975Y-3.075
X2.975Y-4.475
X3.075Y-3.075
X3.075Y-4.475
X3.175Y-3.075
X3.175Y-4.475
X3.275Y-3.075
X3.275Y-4.475
X3.375Y-3.075
X3.375Y-4.475
X3.475Y-3.075
X3.475Y-4.475
X3.575Y-3.075
X3.575Y-4.475
X3.675Y-3.075
X3.675Y-4.475
X4.025Y-3.075
X4.025Y-4.475
X4.125Y-3.075
X4.125Y-4.475
X4.225Y-3.075
X4.225Y-4.475
X4.325Y-3.075
X4.325Y-4.475
X4.425Y-3.075
X4.425Y-4.475
X4.525Y-3.075
X4.525Y-4.475
X4.625Y-3.075
X4.625Y-4.475
X4.725Y-3.075
X4.725Y-4.475
X4.825Y-3.075
X4.825Y-4.475
X4.925Y-3.075
X4.925Y-4.475
X5.025Y-3.075
X5.025Y-4.475
X5.375Y-3.075
X5.375Y-4.475
X5.475Y-3.075
X5.475Y-4.475
X5.575Y-3.075
X5.575Y-4.475
X5.675Y-3.075
X5.675Y-4.475
X5.775Y-3.075
X5.775Y-4.475
X5.875Y-3.075
X5.875Y-4.475
X5.975Y-3.075
X5.975Y-4.475
X6.075Y-3.075
X6.075Y-4.475
X6.175Y-3.075
X6.175Y-4.475
X6.275Y-3.075
X6.275Y-4.475
X6.375Y-3.075
X6.375Y-4.475
X6.725Y-3.075
X6.725Y-4.475
X6.825Y-3.075
X6.825Y-4.475
X6.925Y-3.075
X6.925Y-4.475
X7.025Y-3.075
X7.025Y-4.475
X7.075Y-4.75
X7.075Y-5.35
X7.125Y-3.075
X7.125Y-4.475
X7.225Y-3.075
X7.225Y-4.475
X7.325Y-3.075
X7.325Y-4.475
X7.375Y-4.75
X7.375Y-5.35
X7.425Y-3.075
X7.425Y-4.475
X7.525Y-3.075
X7.525Y-4.475
X7.625Y-3.075
X7.625Y-4.475
X7.725Y-3.075
X7.725Y-4.475
X8.475Y-4.025
X8.6128Y-4.025
T3
X8.075Y-3.075
X8.125Y-3.175
X8.175Y-3.075
X8.225Y-3.175
X8.275Y-3.075
X8.325Y-3.175
X8.375Y-3.075
X8.425Y-3.175
X8.475Y-3.075
X8.525Y-3.175
T4
X2.625Y-4.125
X2.625Y-4.225
X2.725Y-4.125
X2.725Y-4.225
X2.725Y-4.875
X2.725Y-4.975
X2.725Y-5.075
X2.725Y-5.175
X2.725Y-5.275
X2.725Y-5.375
X2.825Y-4.125
X2.825Y-4.225
X2.925Y-4.125
X2.925Y-4.225
X2.975Y-2.825
X3.025Y-4.125
X3.025Y-4.225
X3.0295Y-2.7132
X3.0841Y-2.825
X3.125Y-4.125
X3.125Y-4.225
X3.1386Y-2.7132
X3.1931Y-2.825
X3.225Y-4.125
X3.225Y-4.225
X3.2476Y-2.7132
X3.3022Y-2.825
X3.325Y-4.125
X3.325Y-4.225
X3.3567Y-2.7132
X3.4112Y-2.825
X3.425Y-4.125
X3.425Y-4.225
X3.525Y-4.125
X3.525Y-4.225
X3.625Y-4.125
X3.625Y-4.225
X3.725Y-4.125
X3.725Y-4.225
X3.825Y-4.125
X3.825Y-4.225
X3.925Y-4.125
X3.925Y-4.225
X4.025Y-4.125
X4.025Y-4.225
X4.125Y-4.125
X4.125Y-4.225
X4.125Y-4.95
X4.125Y-5.05
X4.125Y-5.15
X4.125Y-5.25
X4.225Y-4.125
X4.225Y-4.225
X4.325Y-2.825
X4.325Y-4.125
X4.325Y-4.225
X4.3795Y-2.7132
X4.425Y-4.125
X4.425Y-4.225
X4.4341Y-2.825
X4.4886Y-2.7132
X4.525Y-4.125
X4.525Y-4.225
X4.5431Y-2.825
X4.5976Y-2.7132
X4.6522Y-2.825
X4.7067Y-2.7132
X4.7612Y-2.825
X5.675Y-2.825
X5.7295Y-2.7132
X5.7841Y-2.825
X5.8386Y-2.7132
X5.8931Y-2.825
X5.9476Y-2.7132
X6.0022Y-2.825
X6.0567Y-2.7132
X6.1112Y-2.825
X7.025Y-2.825
X7.0795Y-2.7132
X7.1341Y-2.825
X7.1886Y-2.7132
X7.2431Y-2.825
X7.2976Y-2.7132
X7.3522Y-2.825
X7.4067Y-2.7132
X7.4612Y-2.825
X8.54Y-4.62
T5
X8.4073Y-4.45
X8.4742Y-4.45
X8.5411Y-4.45
X8.6081Y-4.45
X8.675Y-4.45
T6
X8.175Y-5.1631
X8.175Y-5.36
X8.85Y-5.11
X8.85Y-5.3856
T7
X8.075Y-3.55
X8.9608Y-3.55
T8
X7.9951Y-2.9451
X8.075Y-3.9
X8.075Y-4.5
X8.6049Y-2.9451
X9.0Y-3.9
X9.0Y-4.5
T9
X2.701Y-2.7691
X3.6852Y-2.7691
X4.051Y-2.7691
X5.0352Y-2.7691
X5.401Y-2.7691
X6.3852Y-2.7691
X6.751Y-2.7691
X7.7352Y-2.7691
T4
G00X8.775Y-2.7725
M15
G01X8.775Y-2.8513
M16
G05
G00X8.9994Y-2.6938
M15
G01X8.9206Y-2.6938
M16
G05
G00X8.9994Y-2.93
M15
G01X8.9206Y-2.93
M16
G05
T0
M30
